<mxfile host="app.diagrams.net" agent="Mozilla/5.0 (Windows NT 10.0; Win64; x64) AppleWebKit/537.36 (KHTML, like Gecko) Chrome/132.0.0.0 Safari/537.36 Edg/132.0.0.0" version="26.0.11">
  <diagram name="Página-1" id="tIlnt_C-WENyOzvJEtAE">
    <mxGraphModel grid="1" page="1" gridSize="10" guides="1" tooltips="1" connect="1" arrows="1" fold="1" pageScale="1" pageWidth="3300" pageHeight="4681" math="0" shadow="0">
      <root>
        <mxCell id="0" />
        <mxCell id="1" parent="0" />
        <mxCell id="nv5GtG-6AMRYLUCMZAUh-29" value="" style="edgeStyle=orthogonalEdgeStyle;rounded=0;orthogonalLoop=1;jettySize=auto;html=1;" edge="1" parent="1" source="nv5GtG-6AMRYLUCMZAUh-1" target="nv5GtG-6AMRYLUCMZAUh-4">
          <mxGeometry relative="1" as="geometry" />
        </mxCell>
        <mxCell id="nv5GtG-6AMRYLUCMZAUh-1" value="" style="rounded=1;whiteSpace=wrap;html=1;" vertex="1" parent="1">
          <mxGeometry x="440" y="20" width="120" height="60" as="geometry" />
        </mxCell>
        <mxCell id="nv5GtG-6AMRYLUCMZAUh-2" value="Inicio&amp;nbsp;&lt;div&gt;(Robot en home)&lt;/div&gt;" style="text;html=1;align=center;verticalAlign=middle;whiteSpace=wrap;rounded=0;" vertex="1" parent="1">
          <mxGeometry x="445" y="35" width="110" height="30" as="geometry" />
        </mxCell>
        <mxCell id="nv5GtG-6AMRYLUCMZAUh-30" value="" style="edgeStyle=orthogonalEdgeStyle;rounded=0;orthogonalLoop=1;jettySize=auto;html=1;" edge="1" parent="1" source="nv5GtG-6AMRYLUCMZAUh-3" target="nv5GtG-6AMRYLUCMZAUh-6">
          <mxGeometry relative="1" as="geometry" />
        </mxCell>
        <mxCell id="nv5GtG-6AMRYLUCMZAUh-3" value="" style="rounded=1;whiteSpace=wrap;html=1;" vertex="1" parent="1">
          <mxGeometry x="440" y="110" width="120" height="60" as="geometry" />
        </mxCell>
        <mxCell id="nv5GtG-6AMRYLUCMZAUh-4" value="Esperar caja&amp;nbsp;&lt;div&gt;(detección en banda )&lt;/div&gt;" style="text;html=1;align=center;verticalAlign=middle;whiteSpace=wrap;rounded=0;" vertex="1" parent="1">
          <mxGeometry x="455" y="125" width="90" height="30" as="geometry" />
        </mxCell>
        <mxCell id="nv5GtG-6AMRYLUCMZAUh-31" value="" style="edgeStyle=orthogonalEdgeStyle;rounded=0;orthogonalLoop=1;jettySize=auto;html=1;" edge="1" parent="1" source="nv5GtG-6AMRYLUCMZAUh-5" target="nv5GtG-6AMRYLUCMZAUh-8">
          <mxGeometry relative="1" as="geometry" />
        </mxCell>
        <mxCell id="nv5GtG-6AMRYLUCMZAUh-5" value="" style="rounded=1;whiteSpace=wrap;html=1;" vertex="1" parent="1">
          <mxGeometry x="440" y="200" width="120" height="60" as="geometry" />
        </mxCell>
        <mxCell id="nv5GtG-6AMRYLUCMZAUh-6" value="Identificar Caja&amp;nbsp;&lt;div&gt;(Sensor)&lt;/div&gt;" style="text;html=1;align=center;verticalAlign=middle;whiteSpace=wrap;rounded=0;" vertex="1" parent="1">
          <mxGeometry x="455" y="215" width="90" height="30" as="geometry" />
        </mxCell>
        <mxCell id="nv5GtG-6AMRYLUCMZAUh-20" style="edgeStyle=orthogonalEdgeStyle;rounded=0;orthogonalLoop=1;jettySize=auto;html=1;entryX=0.5;entryY=0;entryDx=0;entryDy=0;" edge="1" parent="1" source="nv5GtG-6AMRYLUCMZAUh-7" target="nv5GtG-6AMRYLUCMZAUh-10">
          <mxGeometry relative="1" as="geometry" />
        </mxCell>
        <mxCell id="nv5GtG-6AMRYLUCMZAUh-21" style="edgeStyle=orthogonalEdgeStyle;rounded=0;orthogonalLoop=1;jettySize=auto;html=1;entryX=0.5;entryY=0;entryDx=0;entryDy=0;" edge="1" parent="1" source="nv5GtG-6AMRYLUCMZAUh-7" target="nv5GtG-6AMRYLUCMZAUh-12">
          <mxGeometry relative="1" as="geometry" />
        </mxCell>
        <mxCell id="nv5GtG-6AMRYLUCMZAUh-7" value="" style="rhombus;whiteSpace=wrap;html=1;" vertex="1" parent="1">
          <mxGeometry x="440" y="290" width="120" height="60" as="geometry" />
        </mxCell>
        <mxCell id="nv5GtG-6AMRYLUCMZAUh-8" value="Producto A?" style="text;html=1;align=center;verticalAlign=middle;whiteSpace=wrap;rounded=0;" vertex="1" parent="1">
          <mxGeometry x="465" y="305" width="70" height="30" as="geometry" />
        </mxCell>
        <mxCell id="nv5GtG-6AMRYLUCMZAUh-34" style="edgeStyle=orthogonalEdgeStyle;rounded=0;orthogonalLoop=1;jettySize=auto;html=1;" edge="1" parent="1" source="nv5GtG-6AMRYLUCMZAUh-10">
          <mxGeometry relative="1" as="geometry">
            <mxPoint x="500" y="630" as="targetPoint" />
            <Array as="points">
              <mxPoint x="340" y="590" />
              <mxPoint x="501" y="590" />
            </Array>
          </mxGeometry>
        </mxCell>
        <mxCell id="nv5GtG-6AMRYLUCMZAUh-10" value="" style="rounded=1;whiteSpace=wrap;html=1;" vertex="1" parent="1">
          <mxGeometry x="280" y="390" width="120" height="60" as="geometry" />
        </mxCell>
        <mxCell id="nv5GtG-6AMRYLUCMZAUh-11" value="Asignar Pallet A" style="text;html=1;align=center;verticalAlign=middle;whiteSpace=wrap;rounded=0;" vertex="1" parent="1">
          <mxGeometry x="310" y="405" width="60" height="30" as="geometry" />
        </mxCell>
        <mxCell id="nv5GtG-6AMRYLUCMZAUh-22" style="edgeStyle=orthogonalEdgeStyle;rounded=0;orthogonalLoop=1;jettySize=auto;html=1;entryX=0.5;entryY=0;entryDx=0;entryDy=0;" edge="1" parent="1" source="nv5GtG-6AMRYLUCMZAUh-12" target="nv5GtG-6AMRYLUCMZAUh-14">
          <mxGeometry relative="1" as="geometry" />
        </mxCell>
        <mxCell id="nv5GtG-6AMRYLUCMZAUh-23" style="edgeStyle=orthogonalEdgeStyle;rounded=0;orthogonalLoop=1;jettySize=auto;html=1;entryX=0.5;entryY=0;entryDx=0;entryDy=0;" edge="1" parent="1" source="nv5GtG-6AMRYLUCMZAUh-12" target="nv5GtG-6AMRYLUCMZAUh-18">
          <mxGeometry relative="1" as="geometry" />
        </mxCell>
        <mxCell id="nv5GtG-6AMRYLUCMZAUh-12" value="" style="rhombus;whiteSpace=wrap;html=1;" vertex="1" parent="1">
          <mxGeometry x="600" y="390" width="120" height="60" as="geometry" />
        </mxCell>
        <mxCell id="nv5GtG-6AMRYLUCMZAUh-13" value="Producto B?" style="text;html=1;align=center;verticalAlign=middle;whiteSpace=wrap;rounded=0;" vertex="1" parent="1">
          <mxGeometry x="620" y="405" width="80" height="30" as="geometry" />
        </mxCell>
        <mxCell id="nv5GtG-6AMRYLUCMZAUh-32" style="edgeStyle=orthogonalEdgeStyle;rounded=0;orthogonalLoop=1;jettySize=auto;html=1;entryX=0.5;entryY=0;entryDx=0;entryDy=0;" edge="1" parent="1" source="nv5GtG-6AMRYLUCMZAUh-14" target="nv5GtG-6AMRYLUCMZAUh-28">
          <mxGeometry relative="1" as="geometry" />
        </mxCell>
        <mxCell id="nv5GtG-6AMRYLUCMZAUh-14" value="" style="rounded=1;whiteSpace=wrap;html=1;" vertex="1" parent="1">
          <mxGeometry x="440" y="480" width="120" height="60" as="geometry" />
        </mxCell>
        <mxCell id="nv5GtG-6AMRYLUCMZAUh-15" value="Asignar Pallet B" style="text;html=1;align=center;verticalAlign=middle;whiteSpace=wrap;rounded=0;" vertex="1" parent="1">
          <mxGeometry x="470" y="495" width="60" height="30" as="geometry" />
        </mxCell>
        <mxCell id="nv5GtG-6AMRYLUCMZAUh-35" style="edgeStyle=orthogonalEdgeStyle;rounded=0;orthogonalLoop=1;jettySize=auto;html=1;entryX=0.5;entryY=0;entryDx=0;entryDy=0;" edge="1" parent="1" source="nv5GtG-6AMRYLUCMZAUh-18" target="nv5GtG-6AMRYLUCMZAUh-28">
          <mxGeometry relative="1" as="geometry">
            <Array as="points">
              <mxPoint x="820" y="590" />
              <mxPoint x="500" y="590" />
            </Array>
          </mxGeometry>
        </mxCell>
        <mxCell id="nv5GtG-6AMRYLUCMZAUh-18" value="" style="rounded=1;whiteSpace=wrap;html=1;" vertex="1" parent="1">
          <mxGeometry x="760" y="480" width="120" height="60" as="geometry" />
        </mxCell>
        <mxCell id="nv5GtG-6AMRYLUCMZAUh-19" value="Asignar Pallet C" style="text;html=1;align=center;verticalAlign=middle;whiteSpace=wrap;rounded=0;" vertex="1" parent="1">
          <mxGeometry x="790" y="495" width="60" height="30" as="geometry" />
        </mxCell>
        <mxCell id="nv5GtG-6AMRYLUCMZAUh-24" value="Si" style="text;html=1;align=center;verticalAlign=middle;whiteSpace=wrap;rounded=0;" vertex="1" parent="1">
          <mxGeometry x="360" y="290" width="60" height="30" as="geometry" />
        </mxCell>
        <mxCell id="nv5GtG-6AMRYLUCMZAUh-25" value="No" style="text;html=1;align=center;verticalAlign=middle;whiteSpace=wrap;rounded=0;" vertex="1" parent="1">
          <mxGeometry x="580" y="290" width="60" height="30" as="geometry" />
        </mxCell>
        <mxCell id="nv5GtG-6AMRYLUCMZAUh-26" value="Si" style="text;html=1;align=center;verticalAlign=middle;whiteSpace=wrap;rounded=0;" vertex="1" parent="1">
          <mxGeometry x="520" y="390" width="60" height="30" as="geometry" />
        </mxCell>
        <mxCell id="nv5GtG-6AMRYLUCMZAUh-27" value="No" style="text;html=1;align=center;verticalAlign=middle;whiteSpace=wrap;rounded=0;" vertex="1" parent="1">
          <mxGeometry x="750" y="390" width="60" height="30" as="geometry" />
        </mxCell>
        <mxCell id="nv5GtG-6AMRYLUCMZAUh-42" style="edgeStyle=orthogonalEdgeStyle;rounded=0;orthogonalLoop=1;jettySize=auto;html=1;entryX=0.5;entryY=0;entryDx=0;entryDy=0;" edge="1" parent="1" source="nv5GtG-6AMRYLUCMZAUh-28" target="nv5GtG-6AMRYLUCMZAUh-37">
          <mxGeometry relative="1" as="geometry" />
        </mxCell>
        <mxCell id="nv5GtG-6AMRYLUCMZAUh-28" value="" style="rounded=1;whiteSpace=wrap;html=1;" vertex="1" parent="1">
          <mxGeometry x="440" y="630" width="120" height="60" as="geometry" />
        </mxCell>
        <mxCell id="nv5GtG-6AMRYLUCMZAUh-36" value="Ir a la posición de toma&amp;nbsp;" style="text;html=1;align=center;verticalAlign=middle;whiteSpace=wrap;rounded=0;" vertex="1" parent="1">
          <mxGeometry x="460" y="645" width="80" height="30" as="geometry" />
        </mxCell>
        <mxCell id="nv5GtG-6AMRYLUCMZAUh-43" style="edgeStyle=orthogonalEdgeStyle;rounded=0;orthogonalLoop=1;jettySize=auto;html=1;entryX=0.5;entryY=0;entryDx=0;entryDy=0;" edge="1" parent="1" source="nv5GtG-6AMRYLUCMZAUh-37" target="nv5GtG-6AMRYLUCMZAUh-40">
          <mxGeometry relative="1" as="geometry" />
        </mxCell>
        <mxCell id="nv5GtG-6AMRYLUCMZAUh-37" value="" style="rounded=1;whiteSpace=wrap;html=1;" vertex="1" parent="1">
          <mxGeometry x="440" y="720" width="120" height="60" as="geometry" />
        </mxCell>
        <mxCell id="nv5GtG-6AMRYLUCMZAUh-38" value="Activar herramienta&amp;nbsp;" style="text;html=1;align=center;verticalAlign=middle;whiteSpace=wrap;rounded=0;" vertex="1" parent="1">
          <mxGeometry x="460" y="735" width="80" height="30" as="geometry" />
        </mxCell>
        <mxCell id="nv5GtG-6AMRYLUCMZAUh-47" style="edgeStyle=orthogonalEdgeStyle;rounded=0;orthogonalLoop=1;jettySize=auto;html=1;entryX=0.5;entryY=0;entryDx=0;entryDy=0;" edge="1" parent="1" source="nv5GtG-6AMRYLUCMZAUh-40" target="nv5GtG-6AMRYLUCMZAUh-44">
          <mxGeometry relative="1" as="geometry" />
        </mxCell>
        <mxCell id="nv5GtG-6AMRYLUCMZAUh-40" value="" style="rounded=1;whiteSpace=wrap;html=1;" vertex="1" parent="1">
          <mxGeometry x="440" y="810" width="120" height="60" as="geometry" />
        </mxCell>
        <mxCell id="nv5GtG-6AMRYLUCMZAUh-41" value="Levantar caja (Movimiento seguro)" style="text;html=1;align=center;verticalAlign=middle;whiteSpace=wrap;rounded=0;" vertex="1" parent="1">
          <mxGeometry x="440" y="825" width="120" height="30" as="geometry" />
        </mxCell>
        <mxCell id="nv5GtG-6AMRYLUCMZAUh-49" style="edgeStyle=orthogonalEdgeStyle;rounded=0;orthogonalLoop=1;jettySize=auto;html=1;entryX=0.5;entryY=0;entryDx=0;entryDy=0;" edge="1" parent="1" source="nv5GtG-6AMRYLUCMZAUh-44" target="nv5GtG-6AMRYLUCMZAUh-48">
          <mxGeometry relative="1" as="geometry" />
        </mxCell>
        <mxCell id="nv5GtG-6AMRYLUCMZAUh-44" value="" style="rounded=1;whiteSpace=wrap;html=1;" vertex="1" parent="1">
          <mxGeometry x="440" y="900" width="120" height="60" as="geometry" />
        </mxCell>
        <mxCell id="nv5GtG-6AMRYLUCMZAUh-45" value="Llevar caja al pallet seleccionado" style="text;html=1;align=center;verticalAlign=middle;whiteSpace=wrap;rounded=0;" vertex="1" parent="1">
          <mxGeometry x="445" y="915" width="110" height="30" as="geometry" />
        </mxCell>
        <mxCell id="nv5GtG-6AMRYLUCMZAUh-54" style="edgeStyle=orthogonalEdgeStyle;rounded=0;orthogonalLoop=1;jettySize=auto;html=1;entryX=0.5;entryY=0;entryDx=0;entryDy=0;" edge="1" parent="1" source="nv5GtG-6AMRYLUCMZAUh-48" target="nv5GtG-6AMRYLUCMZAUh-51">
          <mxGeometry relative="1" as="geometry" />
        </mxCell>
        <mxCell id="nv5GtG-6AMRYLUCMZAUh-48" value="" style="rounded=1;whiteSpace=wrap;html=1;" vertex="1" parent="1">
          <mxGeometry x="440" y="990" width="120" height="60" as="geometry" />
        </mxCell>
        <mxCell id="nv5GtG-6AMRYLUCMZAUh-50" value="Colocar caja (Liberar vacuum)" style="text;html=1;align=center;verticalAlign=middle;whiteSpace=wrap;rounded=0;" vertex="1" parent="1">
          <mxGeometry x="450" y="1005" width="100" height="30" as="geometry" />
        </mxCell>
        <mxCell id="nv5GtG-6AMRYLUCMZAUh-51" value="" style="rounded=1;whiteSpace=wrap;html=1;" vertex="1" parent="1">
          <mxGeometry x="440" y="1080" width="120" height="60" as="geometry" />
        </mxCell>
        <mxCell id="nv5GtG-6AMRYLUCMZAUh-52" value="Ir a la posición de Home" style="text;html=1;align=center;verticalAlign=middle;whiteSpace=wrap;rounded=0;" vertex="1" parent="1">
          <mxGeometry x="460" y="1095" width="80" height="30" as="geometry" />
        </mxCell>
      </root>
    </mxGraphModel>
  </diagram>
</mxfile>
